<mxfile host="app.diagrams.net" modified="2022-06-19T14:57:13.575Z" agent="5.0 (Macintosh; Intel Mac OS X 10_15_7) AppleWebKit/537.36 (KHTML, like Gecko) Chrome/102.0.0.0 Safari/537.36" etag="I9bCnAoDSpVqhC3kRBjS" version="20.0.1" type="github">
  <diagram id="SPF4bl__4cPRsVLuZ7SP" name="Page-1">
    <mxGraphModel dx="916" dy="715" grid="1" gridSize="10" guides="1" tooltips="1" connect="1" arrows="1" fold="1" page="1" pageScale="1" pageWidth="827" pageHeight="1169" math="0" shadow="0">
      <root>
        <mxCell id="0" />
        <mxCell id="1" parent="0" />
        <mxCell id="tFhsLO-X5YyHum3ezjBZ-3" style="edgeStyle=orthogonalEdgeStyle;rounded=0;orthogonalLoop=1;jettySize=auto;html=1;entryX=0;entryY=0.5;entryDx=0;entryDy=0;entryPerimeter=0;fontSize=16;" edge="1" parent="1" source="tFhsLO-X5YyHum3ezjBZ-1" target="tFhsLO-X5YyHum3ezjBZ-2">
          <mxGeometry relative="1" as="geometry" />
        </mxCell>
        <mxCell id="tFhsLO-X5YyHum3ezjBZ-1" value="ib_logfile0" style="shape=cylinder3;whiteSpace=wrap;html=1;boundedLbl=1;backgroundOutline=1;size=15;fontSize=16;fillColor=#f5f5f5;fontColor=#333333;strokeColor=#666666;" vertex="1" parent="1">
          <mxGeometry x="130" y="220" width="130" height="100" as="geometry" />
        </mxCell>
        <mxCell id="tFhsLO-X5YyHum3ezjBZ-4" style="edgeStyle=orthogonalEdgeStyle;rounded=0;orthogonalLoop=1;jettySize=auto;html=1;entryX=1;entryY=0;entryDx=0;entryDy=67.5;entryPerimeter=0;fontSize=16;exitX=0;exitY=0;exitDx=0;exitDy=67.5;exitPerimeter=0;" edge="1" parent="1" source="tFhsLO-X5YyHum3ezjBZ-2" target="tFhsLO-X5YyHum3ezjBZ-1">
          <mxGeometry relative="1" as="geometry" />
        </mxCell>
        <mxCell id="tFhsLO-X5YyHum3ezjBZ-2" value="ib_logfile1" style="shape=cylinder3;whiteSpace=wrap;html=1;boundedLbl=1;backgroundOutline=1;size=15;fontSize=16;fillColor=#f5f5f5;fontColor=#333333;strokeColor=#666666;" vertex="1" parent="1">
          <mxGeometry x="349" y="220" width="130" height="100" as="geometry" />
        </mxCell>
      </root>
    </mxGraphModel>
  </diagram>
</mxfile>
